<svg width="18" height="19" viewBox="0 0 18 19" fill="none" xmlns="http://www.w3.org/2000/svg">
<g filter="url(#filter0_b_11658_3962)">
<path d="M11.1367 11.1578L10.6278 10.2969C10.2839 10.5002 10.094 10.8887 10.1449 11.285C10.1957 11.6812 10.4775 12.0092 10.8615 12.1191L11.1367 11.1578ZM6.86325 11.1578L7.13847 12.1191C7.52253 12.0092 7.80431 11.6812 7.85513 11.285C7.90595 10.8887 7.71606 10.5003 7.37217 10.297L6.86325 11.1578ZM1.21918 17.7807L0.546724 18.5208H0.546724L1.21918 17.7807ZM16.7808 17.7807L16.1083 17.0405L16.1083 17.0406L16.7808 17.7807ZM17 16.1673L18 16.1673V16.1673L17 16.1673ZM12.4444 6.38888C12.4444 8.31686 11.6802 9.67474 10.6278 10.2969L11.6457 12.0186C13.467 10.9418 14.4444 8.81568 14.4444 6.38888H12.4444ZM8.99998 2.5C10.1232 2.5 10.9498 2.86342 11.5018 3.45813C12.0616 4.06113 12.4444 5.01608 12.4444 6.38888H14.4444C14.4444 4.65057 13.955 3.16109 12.9676 2.09742C11.9725 1.02547 10.5768 0.5 8.99998 0.5V2.5ZM5.55555 6.38888C5.55555 5.01608 5.93835 4.06113 6.49813 3.45813C7.05021 2.86342 7.87674 2.5 8.99998 2.5V0.5C7.42317 0.5 6.02748 1.02547 5.03236 2.09742C4.04494 3.16109 3.55555 4.65057 3.55555 6.38888H5.55555ZM7.37217 10.297C6.31975 9.67476 5.55555 8.31687 5.55555 6.38888H3.55555C3.55555 8.81569 4.53297 10.9418 6.35434 12.0186L7.37217 10.297ZM2 16.1673C2 15.9814 2.07955 15.6877 2.33523 15.2949C2.5855 14.9103 2.96601 14.4913 3.45886 14.0757C4.4471 13.2423 5.78768 12.5058 7.13847 12.1191L6.58803 10.1964C4.95898 10.6627 3.36793 11.5361 2.16951 12.5468C1.56903 13.0531 1.04244 13.6147 0.658958 14.2039C0.280872 14.7849 0 15.4582 0 16.1673H2ZM1.89164 17.0406C2.06987 17.2025 2.04414 17.3682 2.02175 17.1584C2.00141 16.9678 2 16.6793 2 16.1673H0C0 16.6292 -0.00140679 17.0478 0.0330444 17.3706C0.0654485 17.6743 0.149312 18.1598 0.546724 18.5208L1.89164 17.0406ZM2.33333 16.9451C2.17951 16.9451 2.05754 16.945 1.95198 16.9427C1.84594 16.9404 1.77722 16.9362 1.73108 16.9309C1.62044 16.9184 1.74837 16.9104 1.89164 17.0406L0.546724 18.5208C0.870928 18.8154 1.25446 18.8896 1.50493 18.9181C1.75513 18.9466 2.05524 18.9451 2.33333 18.9451V16.9451ZM9.00002 16.9451H2.33333V18.9451H9.00002V16.9451ZM15.6666 16.9451H9.00002V18.9451H15.6666V16.9451ZM16.1083 17.0406C16.2516 16.9104 16.3795 16.9184 16.2689 16.9309C16.2227 16.9362 16.154 16.9404 16.048 16.9427C15.9424 16.945 15.8205 16.9451 15.6666 16.9451V18.9451C15.9447 18.9451 16.2448 18.9466 16.495 18.9181C16.7455 18.8896 17.129 18.8154 17.4532 18.5208L16.1083 17.0406ZM16 16.1673C16 16.6793 15.9986 16.9678 15.9782 17.1584C15.9558 17.3682 15.9301 17.2025 16.1083 17.0405L17.4532 18.5208C17.8507 18.1598 17.9345 17.6743 17.9669 17.3707C18.0014 17.0478 18 16.6292 18 16.1673L16 16.1673ZM10.8615 12.1191C12.2123 12.5058 13.5529 13.2423 14.5412 14.0757C15.034 14.4913 15.4145 14.9103 15.6648 15.2949C15.9205 15.6877 16 15.9814 16 16.1673L18 16.1673C18 15.4583 17.7191 14.7849 17.3411 14.2039C16.9576 13.6147 16.431 13.0531 15.8305 12.5467C14.6321 11.5361 13.041 10.6627 11.412 10.1964L10.8615 12.1191Z" fill="currentColor"/>
</g>
<defs>
<filter id="filter0_b_11658_3962" x="-4" y="-3.5" width="26" height="26.4453" filterUnits="userSpaceOnUse" color-interpolation-filters="sRGB">
<feFlood flood-opacity="0" result="BackgroundImageFix"/>
<feGaussianBlur in="BackgroundImageFix" stdDeviation="2"/>
<feComposite in2="SourceAlpha" operator="in" result="effect1_backgroundBlur_11658_3962"/>
<feBlend mode="normal" in="SourceGraphic" in2="effect1_backgroundBlur_11658_3962" result="shape"/>
</filter>
</defs>
</svg>
